<svg width="297" height="297" viewBox="0 0 297 297" fill="none" xmlns="http://www.w3.org/2000/svg">
<path d="M148.5 0L158.35 98.9801L205.328 11.3039L176.551 106.519L253.505 43.4946L190.481 120.449L285.696 91.6715L198.02 138.65L297 148.5L198.02 158.35L285.696 205.328L190.481 176.551L253.505 253.505L176.551 190.481L205.328 285.696L158.35 198.02L148.5 297L138.65 198.02L91.6715 285.696L120.449 190.481L43.4946 253.505L106.519 176.551L11.3039 205.328L98.9801 158.35L0 148.5L98.9801 138.65L11.3039 91.6715L106.519 120.449L43.4946 43.4946L120.449 106.519L91.6715 11.3039L138.65 98.9801L148.5 0Z" fill="#333333"/>
</svg>
